<?xml version="1.0" encoding="utf-8"?>
<!-- Generator: Adobe Illustrator 25.0.0, SVG Export Plug-In . SVG Version: 6.00 Build 0)  -->
<svg version="1.1" id="Layer_1" xmlns="http://www.w3.org/2000/svg" xmlns:xlink="http://www.w3.org/1999/xlink" x="0px" y="0px"
	 viewBox="0 0 403.7 202.6" style="enable-background:new 0 0 403.7 202.6;" xml:space="preserve">
<style type="text/css">
	.st0{fill:#EAE8E8;}
	.st1{fill:#F4683D;}
</style>
<path class="st0" d="M21.6,104.5c-3.3,0-6.7-0.5-9.8-1.5c-2.9-0.9-5.4-2.7-7.2-5.1c-1.8-2.4-2.7-5.8-2.7-10c0-3.9,1.1-7.8,3.1-11.1
	c2.2-3.7,5-7,8.2-9.8c3.4-2.9,7-5.6,10.9-7.8c0.6-0.3,1.2-0.6,1.9-0.7c0.3,0,0.5,0.1,0.5,0.3s-0.4,0.7-1.1,1.3
	C18,64.3,12.7,68.8,9.5,73.6s-4.8,9.4-4.8,13.6c-0.1,4.3,1.7,8.4,4.9,11.3c3.2,3.1,7.5,4.6,13,4.6c3.1,0,6.3-0.5,9.2-1.5
	c2.1-0.6,4.1-1.6,6-2.8c1.8-1.3,3.6-2.7,5.1-4.3C40.6,91.3,39,87.8,38,84c-1.1-4.1-1.7-8.3-1.7-12.6c0-3.6,0.4-7.2,1.2-10.8
	c0.8-3.6,1.9-7.1,3.4-10.4c-1.1-3.1-1.6-6.4-1.6-9.7c0.1-5.4,1.4-10.7,3.9-15.5c2.7-5.4,7-9.8,12.2-12.8C59.4,9.7,64,7.9,68.8,7
	c4.6-0.9,9.3-1.4,14-1.4c3.9,0,7.8,0.2,11.7,0.6l11.1,1.2c2.1-2.2,4.5-4,7.2-5.5c2.2-1.2,4.7-1.9,7.3-1.9c1.4-0.1,2.7,0.2,3.9,0.8
	c0.8,0.4,1.2,1.2,1.3,2c-0.1,1.2-0.7,2.4-1.7,3.1c-1.3,1.2-2.8,2-4.5,2.4c-1.8,0.5-3.6,0.7-5.4,0.8c-1.9,0.1-3.6,0.1-5.1,0
	c-2.4,2.9-4.6,5.9-6.6,9c-2.2,3.4-4.3,6.8-6.2,10.2c3.6,1.1,6.8,3.2,9.1,6.1c1.9,2.5,3,5.6,3,8.8c-0.1,3.6-1.3,7.1-3.5,10
	C101.6,57,98.1,60,94,62c-4.6,2.4-10.4,4-17.3,4.6c-3.5,6-7.5,11.7-12,16.9c-4.3,5.1-9.4,9.5-15,13c2.2,1.5,4.7,2.7,7.2,3.5
	c2.9,0.9,5.8,1.4,8.8,1.3c3.3,0,6.6-0.4,9.8-1.2c2.8-0.7,5.4-1.7,7.9-3.2c1.8-0.9,3.2-2.4,4.2-4.2c0.2-0.4,0.5-0.6,0.7-0.6
	c0.5,0,0.6,0.4,0.4,1.2c-0.9,2.1-2.5,3.9-4.5,5c-2.6,1.6-5.4,2.8-8.3,3.5c-3.3,0.9-6.7,1.3-10.1,1.3c-3.4,0-6.7-0.5-9.9-1.6
	c-2.8-1-5.5-2.4-7.9-4.1c-2.6,1.5-5.3,2.7-8.1,3.8c-2.9,1.1-5.9,1.9-9,2.4c-1.5,0.2-3,0.4-4.5,0.6C24.7,104.5,23.2,104.5,21.6,104.5
	z M45.9,93.2c4.1-3.6,7.8-7.6,11.1-12c3.5-4.6,7-9.6,10.3-14.8c-5.4-0.4-10.5-2.1-15.1-4.8c-3.8-2.3-7-5.5-9.2-9.3
	c-1.6,3-2.8,6.2-3.6,9.5c-0.8,3.2-1.2,6.4-1.2,9.7c0,4.1,0.7,8.1,2,11.9C41.3,87,43.3,90.4,45.9,93.2L45.9,93.2z M43.4,48.1
	C46,44,49.2,40.4,53,37.3c4.2-3.3,9-5.9,14-7.6c6.2-2,12.6-3,19.1-2.8h2.3c0.8,0,1.5,0,2.3,0.1c2.2-3.6,4.5-7,6.8-10.1
	c2.1-2.9,4.3-5.7,6.8-8.3c-2.2-0.2-4.5-0.4-6.8-0.6c-2.3-0.2-4.6-0.2-6.9-0.2c-5.3,0-10.7,0.6-15.9,1.7c-5.6,1.2-11,3.4-15.9,6.4
	c-5,2.8-9.2,6.9-12.2,11.9c-2.6,4.2-4,9.1-4.1,14C42.4,43.9,42.8,46,43.4,48.1L43.4,48.1z M68.1,65.1c3.8-6,7.5-12.1,11-18.5
	s7.1-12.3,10.6-17.9c-0.7-0.1-1.4-0.1-2-0.1h-1.9c-6.3-0.1-12.6,0.9-18.6,3c-5,1.8-9.7,4.4-13.8,7.8c-3.7,3.1-6.8,6.8-9.3,10.9
	c1.8,4,4.7,7.4,8.4,9.8C56.5,62.8,61.7,64.5,68.1,65.1L68.1,65.1z M77.6,65c6.2-0.8,11.3-2.3,15.3-4.5c3.5-1.8,6.6-4.5,8.8-7.8
	c1.8-2.7,2.8-5.8,2.8-9c0-2.9-0.9-5.8-2.5-8.1c-1.8-2.6-4.3-4.6-7.3-5.7c-3.1,5.7-5.9,11.5-8.5,17.5S80.8,59.2,77.6,65L77.6,65z
	 M109.7,7.7c4.9,0.2,8.5-0.3,10.7-1.5s3.3-2.3,3.3-3.3c0-1.2-0.9-1.7-2.8-1.7c-1,0.1-2,0.3-2.9,0.6c-1.5,0.5-2.9,1.3-4.2,2.2
	C112.4,5.1,111,6.4,109.7,7.7L109.7,7.7z"/>
<path class="st0" d="M93.2,95.6v-1c3-0.1,5-0.6,6.1-1.6c1.1-0.9,1.7-2.6,1.7-5.1V56.7c0-2.9-0.6-5-1.7-6.2s-3.2-1.9-6.1-2v-1
	l3.3,0.2c1.1,0.1,2.2,0.1,3.3,0.1c2,0,4-0.1,5.9-0.3c1.9-0.2,3.7-0.6,5.5-1v41.4c0,2.5,0.4,4.2,1.3,5.1c0.9,0.9,2.5,1.5,4.8,1.6v1
	l-5.1-0.2c-1.9-0.1-4-0.1-6.1-0.1s-4.4,0-6.7,0.1C97.1,95.5,95.1,95.5,93.2,95.6z M124.5,95.6v-1c2.4-0.1,4-0.7,4.9-1.6
	s1.3-2.7,1.3-5.1V61.7c0-4.2-0.7-7.4-2.2-9.6c-1.4-2.1-3.8-3.4-6.4-3.3c-2.2,0-4.3,0.6-6.1,1.8c-2,1.4-3.7,3.2-4.9,5.3l0.1-1.2
	c1.5-2.6,3.6-4.8,6.2-6.3c2.7-1.5,5.8-2.3,8.9-2.3c4.7,0,8.3,1.5,10.8,4.6c2.5,3,3.7,7.4,3.7,13.1v24c0,2.4,0.4,4.1,1.3,5.1
	c0.9,1,2.5,1.5,4.9,1.6v1l-4.8-0.2c-2.1-0.1-4.3-0.1-6.4-0.1s-4.3,0-6.4,0.1L124.5,95.6z M153.9,95.6v-1c2.4-0.1,4.1-0.7,4.9-1.6
	s1.3-2.7,1.3-5.1V61.7c0-4.2-0.7-7.4-2.2-9.6c-1.4-2.2-3.9-3.4-6.4-3.3c-2.5,0-4.9,0.8-6.9,2.4c-2.2,1.7-3.9,4-5,6.7l-0.2-0.9
	c1.3-3.3,3.6-6.1,6.6-8c2.9-1.9,6.3-2.8,9.7-2.8c4.7,0,8.3,1.6,10.8,4.7c2.5,3.1,3.7,7.5,3.7,13.3v23.7c0,2.4,0.6,4.1,1.7,5.1
	s3.3,1.5,6.3,1.7v1c-0.8-0.1-1.9-0.1-3.3-0.1s-2.9-0.1-4.6-0.1s-3.3-0.1-4.8-0.1c-2.2,0-4.4,0-6.6,0.1L153.9,95.6z"/>
<path class="st0" d="M191.1,96.9c-4,0-7.2-1-9.5-3.1c-4.1-4.1-4.7-10.4-1.5-15.2c1.4-1.8,3.2-3.2,5.2-4.2c2.1-1.1,4.4-2,6.7-2.7
	l6.7-2.1c1.8-0.5,3.6-1.3,5.2-2.3c1.3-0.8,2-2.1,2-3.6v-6.2c0-3.3-0.8-5.8-2.4-7.5s-4-2.5-7.1-2.5c-2-0.1-4.1,0.3-5.9,1.2
	c-1.7,0.8-2.5,1.7-2.5,2.8c0,0.8,0.3,1.6,0.8,2.2c0.5,0.8,1.1,1.7,1.6,2.6c0.5,0.9,0.8,1.9,0.8,2.9c0,1.2-0.5,2.3-1.4,3
	c-1.1,0.8-2.4,1.2-3.7,1.2c-1.5,0.1-3-0.5-4.1-1.6c-1-1.1-1.6-2.6-1.5-4.1c0-2.2,0.9-4.4,2.5-5.9c1.9-1.9,4.3-3.3,6.9-4.1
	c3.1-1.1,6.4-1.6,9.7-1.5c3.3-0.1,6.5,0.5,9.5,1.8c2.4,1.2,4.3,3.2,5.3,5.7c1.2,3.2,1.8,6.6,1.7,10.1v26.9c-0.1,1.1,0.2,2.2,0.7,3.2
	c0.5,0.7,1.3,1.1,2.2,1c1,0,1.9-0.3,2.8-0.8c0.9-0.5,1.8-1.1,2.7-1.7l0.5,0.8c-1.3,1.1-2.8,2-4.4,2.8c-1.8,0.7-3.7,1-5.5,1
	c-5.9,0-8.9-2.7-9-8c-1.6,2.5-3.7,4.5-6.2,6C196.9,96.3,194,97,191.1,96.9z M196.5,92.9c1.8,0,3.6-0.4,5.1-1.4c1.6-1,3-2.3,4.1-3.9
	v-22c-0.5,1.3-1.3,2.3-2.5,3c-1.4,0.9-2.9,1.8-4.4,2.5c-1.7,0.8-3.3,1.8-4.8,2.8c-1.6,1-3,2.3-4,3.9c-1.1,1.8-1.7,3.9-1.6,6
	c-0.1,2.4,0.6,4.7,2.1,6.6C192.1,92.2,194.3,93,196.5,92.9L196.5,92.9z"/>
<path class="st0" d="M241.1,117.9c-6.2,0-11.1-1.1-14.7-3.2s-5.5-4.9-5.5-8.5c0-2.9,1.3-5.6,3.5-7.5c2.9-2.5,6.3-4.3,10-5.4l0.8,0.5
	c-1.8,1-3.2,2.5-4,4.3c-1,2.1-1.5,4.4-1.4,6.7c-0.2,3.3,1.1,6.5,3.5,8.8c2.4,2.1,5.7,3.2,10,3.2c3,0.1,5.9-0.6,8.6-1.8
	c2.4-1.1,4.5-2.8,6-5c1.5-2.1,2.2-4.6,2.2-7.2c0.1-2.3-0.8-4.5-2.6-5.9c-1.7-1.3-4.3-2-7.7-2h-9c-3.8,0-6.8-0.7-8.9-2.1
	c-2-1.2-3.3-3.5-3.2-5.9c0.1-2.2,0.9-4.3,2.4-5.8c2.1-2.2,4.5-3.9,7.3-5.2l0.9,0.1c-1.3,0.7-2.4,1.7-3.3,2.8c-0.6,0.8-1,1.9-1,2.9
	c0,1.2,0.6,2.4,1.6,3c1.3,0.8,2.8,1.2,4.4,1.1h11.5c5.2,0,9.1,1.1,11.8,3.2s4,5.2,4,9.1c0,3.7-1.2,7.3-3.5,10.3
	c-2.5,3.1-5.8,5.5-9.6,7C250.7,117.1,245.9,118,241.1,117.9z M242.3,76.3c-5.6,0-10-1.3-13.2-4c-3.2-2.7-4.8-6.4-4.8-11.1
	c0-4.7,1.6-8.3,4.8-11s7.6-4,13.1-4c5.6,0,10,1.3,13.2,4c3.2,2.7,4.8,6.3,4.8,11c0,4.7-1.6,8.4-4.8,11.1
	C252.1,75,247.8,76.3,242.3,76.3L242.3,76.3z M242.3,75.3c2.5,0.1,4.8-1.3,5.9-3.5c1.3-2.3,2-5.8,2-10.6s-0.7-8.3-2-10.6
	c-1.9-3.2-6-4.4-9.2-2.5c-1,0.6-1.9,1.5-2.5,2.5c-1.3,2.3-2,5.8-2,10.6c0,4.8,0.7,8.3,2,10.6C237.5,74,239.8,75.4,242.3,75.3
	L242.3,75.3z M268.9,57.1c-1.1,0.1-2.1-0.4-2.7-1.3c-0.6-0.9-1.1-1.9-1.4-3c-0.3-1-0.6-2-1-3c-0.3-0.9-0.9-1.3-1.5-1.3
	c-0.7,0.1-1.3,0.4-1.9,0.8c-1,0.6-1.9,1.4-2.7,2.2c-1,1-1.7,2.1-2.2,3.4l-0.6-0.8c1.1-2.3,2.9-4.2,5-5.5c2-1.4,4.4-2.2,6.8-2.3
	c3-0.3,5.7,1.9,6,4.9c0,0.4,0,0.7,0,1.1c0.1,1.3-0.3,2.5-1,3.6C271.1,56.7,270,57.2,268.9,57.1L268.9,57.1z"/>
<path class="st0" d="M294.8,96.9c-4.1,0.1-8-1-11.5-3.1c-3.4-2.1-6.1-5.2-7.7-8.8c-1.9-4.2-2.9-8.8-2.7-13.5
	c-0.1-4.7,0.9-9.3,2.8-13.5c1.8-3.7,4.5-6.7,8-8.8c3.7-2.1,7.9-3.2,12.2-3.1c3.5-0.1,7,0.7,10.1,2.2c2.9,1.5,5.2,3.9,6.6,6.8
	c1.7,3.6,2.5,7.6,2.3,11.6h-35.1l-0.1-0.9h25.2c0.1-3.2-0.2-6.4-0.9-9.5c-0.5-2.4-1.6-4.7-3.1-6.7c-1.3-1.6-3.3-2.5-5.5-2.5
	c-2.9,0-5.4,1.5-7.6,4.5c-2.2,3-3.6,7.8-4.1,14.4l0.1,0.1c-0.1,0.9-0.1,1.7-0.1,2.5V71c0,7,1.3,12.6,3.9,16.6
	c2.4,3.9,6.7,6.2,11.3,6.1c3.1,0,6.2-0.9,8.8-2.6c2.9-2,5-4.8,6.2-8.1l1,0.5c-1.5,4-4.1,7.5-7.7,9.9C303.6,95.8,299.2,97,294.8,96.9
	z"/>
<path class="st1" d="M318.1,123.1c-0.7,0-1.4-0.1-2-0.5c-0.5-0.3-0.7-0.8-0.7-1.4c0-0.5,0.2-0.9,0.5-1.3c0.3-0.3,0.8-0.5,1.3-0.5
	c0.4,0,0.8,0.1,1.1,0.3c0.4,0.2,0.7,0.5,1,0.7c0.3,0.3,0.6,0.5,0.9,0.7c0.3,0.2,0.6,0.3,1,0.3c0.5,0,1-0.2,1.3-0.6
	c0.5-0.6,0.8-1.3,0.9-2l6.1-26c0.5-2.5,1.6-4.9,3.4-6.8c1.6-1.5,3.7-2.3,5.9-2.2c1.2-0.1,2.5,0.2,3.5,0.8c0.8,0.5,1.3,1.4,1.3,2.3
	c0,0.8-0.3,1.5-0.8,2.1c-0.5,0.6-1.2,0.9-1.9,0.9c-0.4,0-0.7-0.1-1-0.3c-0.3-0.2-0.4-0.5-0.4-0.9c0-0.4,0.1-0.8,0.3-1.2
	c0.2-0.4,0.4-0.7,0.6-1.1c0.2-0.3,0.3-0.7,0.3-1.1c0-0.8-0.5-1.1-1.6-1.1c-1.4,0-2.7,0.7-3.5,1.9c-1.2,1.7-2,3.6-2.4,5.6l-4.5,19.1
	c-0.5,2.2-1.3,4.4-2.5,6.3c-1,1.7-2.3,3.1-3.8,4.2C321.3,122.6,319.7,123.1,318.1,123.1z M325.3,94.7l0.1-0.4h12.3l-0.1,0.4H325.3z"
	/>
<path class="st1" d="M343.6,114.5c-1.8,0.1-3.5-0.6-4.7-2c-1.2-1.6-1.8-3.5-1.7-5.5c0-1.7,0.3-3.4,0.9-5c0.6-1.5,1.4-3,2.4-4.2
	c1-1.2,2.2-2.2,3.5-2.9c1.3-0.7,2.7-1.1,4.2-1.1c1.8-0.1,3.5,0.7,4.7,2c1.2,1.6,1.8,3.5,1.7,5.5c0,1.7-0.3,3.4-0.9,5
	c-0.6,1.5-1.4,3-2.4,4.2c-1,1.2-2.2,2.2-3.5,2.9C346.5,114.1,345,114.5,343.6,114.5z M343.6,114.1c0.8,0,1.6-0.3,2.2-0.8
	c0.8-0.6,1.5-1.4,2-2.2c0.7-1,1.2-2.1,1.7-3.2c0.5-1.3,0.9-2.6,1.1-3.9c0.3-1.4,0.4-2.8,0.4-4.2c0.1-1.4-0.2-2.8-0.7-4.1
	c-0.3-0.8-1.1-1.4-2-1.4c-0.8,0-1.6,0.3-2.2,0.8c-0.8,0.6-1.5,1.4-2,2.2c-0.7,1-1.2,2.1-1.7,3.2c-0.5,1.3-0.9,2.6-1.1,3.9
	c-0.3,1.4-0.4,2.8-0.4,4.2c-0.1,1.4,0.2,2.9,0.7,4.2C341.9,113.5,342.7,114,343.6,114.1L343.6,114.1z"/>
<path class="st1" d="M358.2,114l4.4-15.6c0.3-0.8,0.4-1.7,0.2-2.5c-0.1-0.5-0.6-0.9-1.2-0.9c-0.6,0-1.2,0.3-1.7,0.8
	c-0.7,0.7-1.2,1.5-1.6,2.3l-0.8,1.4h-0.4l0.9-1.6c0.4-0.7,0.8-1.3,1.3-1.9c0.5-0.6,1-1.1,1.7-1.5c0.7-0.4,1.4-0.6,2.2-0.6
	c0.8,0,1.6,0.2,2.2,0.7c0.6,0.5,0.9,1.2,1,1.9c0.1,1,0,1.9-0.2,2.8l-4.2,14.8L358.2,114z M371.6,100c-0.8,0-1.4-0.5-1.5-1.3
	c0-0.1,0-0.1,0-0.2c0-0.4,0.1-0.8,0.3-1.2l0.6-1c0.2-0.3,0.2-0.6,0.3-0.9c0-0.5-0.3-0.7-1.1-0.7c-0.8,0-1.6,0.3-2.2,0.8
	c-0.8,0.6-1.6,1.4-2.1,2.3v-0.3c0.6-1.1,1.5-2.1,2.5-2.9c0.9-0.6,1.9-1,3-1c0.8-0.1,1.6,0.2,2.2,0.7c0.5,0.5,0.8,1.3,0.8,2
	c0,0.6-0.1,1.2-0.4,1.7c-0.2,0.5-0.6,0.9-1,1.3C372.6,99.8,372.2,100,371.6,100L371.6,100z"/>
<path class="st0" d="M34.3,202.6c-4.4,0.1-8.7-0.9-12.7-2.9c-3.7-1.9-6.8-4.8-8.9-8.3c-2.3-4-3.4-8.6-3.3-13.2c0-0.6,0-1.2,0.1-1.9
	s0.1-1.3,0.2-1.9C6.5,171.5,4,168,2.3,164c-1.5-3.5-2.3-7.3-2.3-11.2c0-3.6,0.6-7.2,1.9-10.6c1.2-3.3,2.9-6.3,5-9.1L7,133l-1-1.7
	c-1.6-2.6-2.5-5.5-2.5-8.6c0-2.8,0.8-5.5,2.5-7.8c1.8-2.4,4.2-4.4,6.9-5.6c3.3-1.4,6.8-2.1,10.3-2.1c3.9,0.1,7.7,0.7,11.5,1.8
	c4.6,1.4,9,3.5,13,6.2c0.9,0.5,1.7,1.1,2.6,1.7s1.8,1.3,2.6,2c2.9-1.7,5.7-3.2,8.5-4.7c2.8-1.4,5.6-2.6,8.6-3.6
	c3.5-1.4,7.2-2.5,10.9-3.3c2.9-0.6,5.8-0.9,8.7-1c4.8,0,8.3,1,10.7,3.1c2.3,1.9,3.6,4.8,3.5,7.8c-0.1,3.2-1,6.3-2.6,9.1
	c-2,3.7-4.7,7-7.8,9.8c-3.9,3.6-8.2,6.6-12.8,9c-2.5,1.3-5.1,2.5-7.8,3.5c0.2,0.7,0.3,1.4,0.5,2.1c0.2,0.7,0.3,1.5,0.3,2.2
	c0.1,0.5,0.1,1.1,0.2,1.7c0,0.6,0.1,1.2,0.1,1.8c0.1,4.2-1,8.3-3,11.9c-2,3.5-4.7,6.6-8,9c-3.5,2.5-7.3,4.5-11.5,5.7
	c-4.3,1.3-8.8,2-13.2,2c-3.4,0-6.9-0.4-10.2-1.2c-3.5-0.8-6.8-2-9.9-3.7c-0.1,6.5,1.4,11.5,4.5,15s7.3,5.3,12.7,5.3
	c3.2-0.1,6.4-0.6,9.5-1.7c3.8-1.3,7.4-2.9,10.9-4.9c3.6-2.1,7-4.5,10.2-7.1c3.1-2.5,6-5.3,8.7-8.2c2.3-2.4,4.3-5.1,6.1-8
	c0.1-0.3,0.4-0.5,0.7-0.5c0.3,0,0.5,0.1,0.6,0.3c0.2,0.3,0.2,0.6,0.1,0.9c-2.9,4.9-6.4,9.3-10.5,13.2c-4.4,4.3-9.3,8.1-14.6,11.2
	c-3.6,2.1-7.5,3.8-11.6,5C41.8,202.1,38.1,202.6,34.3,202.6z M10.4,169.8c0.3-1.4,0.7-2.8,1.1-4.3s0.9-3,1.5-4.5
	c2.1-5.2,5-10.1,8.4-14.5c-2.6-1.4-5-3.1-7.2-5.1c-2.2-2-4.2-4.2-6-6.6l-0.5,0.6c-3.4,4.3-5.2,9.7-5.1,15.2c0,3.4,0.6,6.7,1.9,9.8
	C5.8,163.9,7.8,167.1,10.4,169.8L10.4,169.8z M22.9,144.6c3.8-4.7,8-9,12.5-12.9c4.7-4.1,9.6-7.8,14.9-11.2l-3.6-2.4
	c-3.6-2.5-7.5-4.5-11.6-5.8c-3.5-1.1-7.1-1.7-10.7-1.7c-5,0-9.1,1.2-12.4,3.5c-3.1,2-5,5.5-4.9,9.2c0.1,2.6,0.8,5.1,2.1,7.4
	c4.2-4.2,8.9-6.4,14-6.4c1,0,2.1,0.1,3.1,0.2c1,0.2,2,0.5,3,1c0.3,0.1,0.5,0.4,0.5,0.7c0,0.2-0.2,0.4-0.3,0.4
	c-0.3,0.1-0.6,0.1-0.9,0c-1.5-0.6-3.1-0.8-4.8-0.8c-5.1,0-9.6,2.2-13.6,6.6l0.2,0.3C13.5,137.7,17.8,141.7,22.9,144.6z M40.8,182.6
	c5.3,0,10.6-1,15.5-3.1c4.5-1.9,8.5-5,11.5-8.9c2.9-4,4.5-8.8,4.3-13.8c0-0.8,0-1.7-0.1-2.5s-0.2-1.7-0.3-2.7l-0.5-2.4
	c-7.4,2.5-15.1,3.7-22.9,3.7c-3.4,0-6.9-0.3-10.3-0.8c-3.3-0.5-6.6-1.3-9.8-2.4c-3,4.7-5.4,9.7-7.2,14.9c-0.6,2.2-1.1,4.2-1.6,6.1
	c-0.5,1.8-0.8,3.7-0.9,5.5c0.3,0.2,0.6,0.4,0.9,0.6c0.3,0.2,0.6,0.4,0.9,0.5C26.6,180.8,33.7,182.6,40.8,182.6z M49.1,151
	c7.4,0,14.7-1.2,21.6-3.6c-1.4-4.8-3.7-9.3-6.6-13.3c-3-4.1-6.5-7.7-10.4-10.9c-4.7,3.4-9.1,7.1-13.2,11.2c-4.1,4.1-7.8,8.5-11,13.3
	c3.1,1.2,6.3,2,9.6,2.5C42.4,150.8,45.8,151.1,49.1,151L49.1,151z M72.4,146.9c1.3-0.5,2.5-1.1,3.7-1.6s2.3-1.1,3.4-1.7
	c7.1-3.9,12.5-8.3,16.2-13.2c3.7-4.9,5.6-9.2,5.5-13c0.1-2.5-0.9-4.9-2.7-6.5c-1.8-1.7-4.6-2.5-8.5-2.5c-2.8,0.1-5.6,0.5-8.4,1.2
	c-3.7,1-7.4,2.3-10.9,3.9c-5.2,2.2-10.1,4.9-14.7,8.2c3.8,3.4,7.1,7.3,9.9,11.5C68.8,137.4,71,142,72.4,146.9L72.4,146.9z"/>
<path class="st0" d="M77.5,194.3v-1c3-0.1,5-0.6,6.1-1.6s1.7-2.6,1.7-5.1v-31.2c0-2.9-0.6-5-1.8-6.2s-3.2-1.9-6.1-2v-1l3.5,0.2
	c1.1,0.1,2.2,0.1,3.4,0.1c3.8,0,7.6-0.4,11.3-1.3v40.6c0,2.7,0.8,4.6,2.4,5.7s4.4,1.7,8.3,1.9v1c-1.1-0.1-2.4-0.1-4.1-0.1
	s-3.6-0.1-5.5-0.1s-4-0.1-5.9-0.1c-2.8,0-5.4,0-7.8,0.1S78.7,194.2,77.5,194.3z M112.6,160.3c-1.2,0.1-2.4-0.4-3.3-1.2
	c-0.8-0.8-1.3-1.9-1.2-3c0-0.8,0.2-1.7,0.5-2.4c0.3-0.7,0.7-1.3,1-2c0.3-0.6,0.5-1.4,0.5-2.1c0-1.4-1-2.1-2.9-2.1
	c-1.5,0-3,0.3-4.3,0.9c-1.5,0.6-3,1.5-4.2,2.5c-1.3,1-2.4,2.3-3.2,3.8l-0.1-1.2c1.5-2.6,3.7-4.7,6.3-6.2c2.5-1.5,5.3-2.3,8.2-2.3
	c2.4-0.1,4.7,0.7,6.5,2.2c1.6,1.6,2.5,3.8,2.4,6.1c0.1,1.9-0.5,3.7-1.7,5.1C115.8,159.6,114.2,160.3,112.6,160.3L112.6,160.3z"/>
<path class="st0" d="M138.9,195.6c-4.1,0.1-8-1-11.5-3.1c-3.4-2.1-6.1-5.2-7.7-8.8c-1.9-4.2-2.9-8.8-2.8-13.4
	c-0.1-4.7,0.9-9.3,2.9-13.5c1.8-3.7,4.5-6.7,8-8.8c3.7-2.1,7.9-3.2,12.2-3.1c3.5-0.1,6.9,0.7,10.1,2.2c2.9,1.5,5.2,3.9,6.6,6.8
	c1.7,3.6,2.5,7.6,2.3,11.6h-35l-0.1-0.9H149c0.1-3.2-0.2-6.4-0.9-9.5c-0.5-2.4-1.6-4.7-3.1-6.7c-1.3-1.6-3.4-2.5-5.5-2.5
	c-2.9,0-5.4,1.5-7.6,4.5s-3.6,7.8-4.1,14.4l0.1,0.1c-0.1,0.9-0.1,1.7-0.1,2.5v2.4c0,7,1.3,12.6,3.9,16.6c2.4,3.9,6.7,6.2,11.3,6.1
	c3.1,0,6.2-0.9,8.8-2.6c2.8-2,5-4.8,6.2-8.1l1,0.5c-1.5,4-4.2,7.5-7.7,9.9C147.6,194.5,143.3,195.7,138.9,195.6z"/>
<path class="st0" d="M175.5,195.6c-4,0-7.2-1-9.5-3.1c-4.1-4.1-4.7-10.4-1.5-15.2c1.4-1.8,3.2-3.2,5.2-4.2c2.1-1.1,4.4-2,6.7-2.7
	l6.7-2c1.8-0.5,3.6-1.3,5.2-2.3c1.3-0.8,2-2.1,2-3.6v-6.2c0-3.3-0.8-5.8-2.4-7.5c-1.6-1.7-4-2.5-7.1-2.5c-2-0.1-4.1,0.3-5.9,1.2
	c-1.7,0.8-2.5,1.7-2.5,2.8c0,0.8,0.3,1.6,0.8,2.2c0.5,0.8,1.1,1.7,1.6,2.6c0.5,0.9,0.8,1.9,0.8,2.9c0,1.2-0.5,2.3-1.4,3
	c-1.1,0.8-2.4,1.2-3.7,1.2c-1.5,0.1-3-0.5-4-1.6c-1-1.1-1.6-2.6-1.5-4.1c0-2.2,0.9-4.4,2.5-5.9c1.9-1.9,4.3-3.3,6.8-4.1
	c3.1-1.1,6.4-1.6,9.8-1.5c3.3-0.1,6.5,0.5,9.5,1.8c2.4,1.2,4.3,3.2,5.3,5.6c1.2,3.2,1.8,6.6,1.7,10.1v26.9c-0.1,1.1,0.2,2.2,0.7,3.2
	c0.5,0.7,1.3,1.1,2.2,1c1,0,1.9-0.3,2.8-0.8c0.9-0.5,1.8-1.1,2.7-1.7l0.5,0.8c-1.3,1.1-2.8,2.1-4.4,2.8c-1.8,0.7-3.7,1-5.5,1
	c-5.9,0-8.9-2.7-9-8c-1.6,2.5-3.7,4.5-6.2,6C181.3,195,178.4,195.7,175.5,195.6z M180.9,191.6c1.8,0,3.6-0.5,5.1-1.4
	c1.6-1,3-2.3,4.1-3.9v-22c-0.5,1.3-1.3,2.3-2.5,3c-1.4,0.9-2.9,1.8-4.4,2.5c-1.7,0.8-3.3,1.8-4.8,2.8c-1.6,1-3,2.3-4,3.9
	c-1.1,1.8-1.7,3.9-1.6,6c-0.1,2.4,0.6,4.7,2.1,6.6C176.5,190.9,178.7,191.7,180.9,191.6L180.9,191.6z"/>
<path class="st0" d="M226,195.6c-4.6,0-8-1.3-10.3-4s-3.4-6.8-3.4-12.4v-31.9h-9.5v-1h9.5v-14c1.9,0,3.7-0.2,5.6-0.5
	c1.6-0.2,3.1-0.6,4.7-1v15.5h14.3v1h-14.3v37.2c0,2.9,0.5,5,1.6,6.4c1.2,1.5,3.1,2.3,5,2.2c2.2,0,4.3-0.9,5.7-2.6
	c1.8-2.2,3-4.7,3.6-7.5l0.8,0.2c-1.1,4.2-2.7,7.4-4.8,9.4C232.3,194.7,229.2,195.8,226,195.6z"/>
<path class="st0" d="M235,194.3v-1c2.9-0.1,4.9-0.6,6.1-1.5s1.8-2.6,1.8-5.2v-31.2c0-2.7-0.5-4.7-1.6-6s-3.2-2-6.2-2.2v-1l3.2,0.2
	c1.1,0.1,2.2,0.1,3.3,0.1c2.1,0,4.1-0.1,6.2-0.3c1.8-0.2,3.6-0.5,5.4-1v41.5c0,2.6,0.6,4.3,1.8,5.2c1.2,0.9,3.2,1.4,6.1,1.5v1
	c-0.8-0.1-1.9-0.1-3.3-0.1s-2.9-0.1-4.6-0.1s-3.3-0.1-4.9-0.1c-2.5,0-5,0-7.5,0.1S236.3,194.2,235,194.3z M247.9,135
	c-1.6,0-3.2-0.6-4.3-1.7c-2.4-2.3-2.4-6.1-0.1-8.5c0,0,0.1-0.1,0.1-0.1c1.2-1.1,2.7-1.7,4.3-1.7c1.6,0,3.1,0.6,4.3,1.6
	c2.4,2.2,2.5,6,0.3,8.4c-0.1,0.1-0.2,0.2-0.3,0.3C251,134.4,249.5,135,247.9,135z"/>
<path class="st0" d="M280.8,195.5l-18.8-42.8c-0.6-1.6-1.7-2.9-3-4c-1.3-0.9-2.8-1.4-4.3-1.4v-1l5.3,0.2c1.7,0.1,3.7,0.1,5.9,0.1
	c2.5,0,4.8,0,6.9-0.1l6.2-0.2v1c-3.2,0.2-5.1,0.8-5.8,1.9s-0.5,3,0.6,5.6l12.4,28.2l-0.8,1l7.8-19.6c1.3-2.8,2-5.8,2.3-8.9
	c0.2-2.1-0.4-4.1-1.6-5.8c-1.4-1.5-3.3-2.4-5.4-2.5v-1c1.5,0.1,2.8,0.1,3.9,0.1s2.2,0,3.1,0h2.9c1.6,0,3,0,4.4,0s2.6-0.1,3.7-0.1v1
	c-2.2,0.5-4.1,1.7-5.5,3.5c-2,2.7-3.6,5.7-4.8,8.9l-14.4,35.8H280.8z"/>
<path class="st0" d="M326.2,195.6c-4.1,0.1-8-1-11.5-3.1c-3.4-2.1-6.1-5.2-7.7-8.8c-1.9-4.2-2.9-8.8-2.8-13.4
	c-0.1-4.7,0.9-9.3,2.8-13.5c1.8-3.6,4.5-6.7,8-8.8c3.7-2.1,7.9-3.2,12.2-3.1c3.5-0.1,7,0.7,10.1,2.2c2.9,1.5,5.2,3.9,6.6,6.8
	c1.7,3.6,2.5,7.6,2.3,11.6h-35.1l-0.1-0.9h25.2c0.1-3.2-0.2-6.4-0.9-9.5c-0.5-2.4-1.6-4.7-3.1-6.7c-1.3-1.6-3.3-2.5-5.5-2.5
	c-2.9,0-5.4,1.5-7.6,4.5s-3.6,7.8-4.1,14.4l0.1,0.1c-0.1,0.9-0.1,1.7-0.1,2.5v2.4c0,7,1.3,12.6,3.9,16.6c2.4,3.9,6.7,6.2,11.3,6.1
	c3.1,0,6.2-0.9,8.8-2.6c2.9-2,5-4.8,6.2-8.1l1,0.5c-1.5,4-4.2,7.5-7.7,9.9C334.9,194.5,330.6,195.7,326.2,195.6z"/>
<path class="st0" d="M368.5,195.6c-2.2,0.1-4.4-0.2-6.5-0.8c-1.5-0.4-3-1-4.4-1.6c-1-0.5-2.1-0.8-3.3-0.8c-1.7,0-2.9,1-3.7,3.1h-1
	c0.2-1.9,0.3-3.8,0.4-5.7c0.1-1.9,0.1-4,0.1-6.3s0-4.7-0.1-7.4h1c1,6.3,2.8,10.9,5.5,13.9s6.4,4.5,11,4.5c3.5,0,6.3-0.8,8.2-2.4
	c1.9-1.6,3-4.1,2.8-6.6c0.1-2.4-0.9-4.8-2.8-6.4c-1.8-1.7-4.9-3.2-9.3-4.7c-5.4-1.8-9.3-4-11.8-6.5c-2.4-2.5-3.8-5.9-3.7-9.4
	c-0.2-3.8,1.4-7.4,4.2-10c2.8-2.5,6.4-3.7,11-3.7c2,0,4.1,0.2,6,0.8c1.4,0.4,2.8,1,4.2,1.6c1,0.5,2.1,0.8,3.2,0.8
	c0.7,0,1.4-0.2,1.9-0.7c0.6-0.6,1-1.4,1.2-2.3h1c-0.1,1.5-0.2,3-0.3,4.6s-0.1,3.3-0.1,5.2s0.1,4,0.1,6.3h-1
	c-0.7-4.7-2.5-8.4-5.2-11.1c-2.6-2.7-6.2-4.1-9.9-4.1c-2.4-0.1-4.9,0.6-6.8,2.2c-1.7,1.5-2.6,3.7-2.5,5.9c0,2.5,1.1,4.8,3,6.4
	c2,1.7,5.4,3.4,10.2,5c5.1,1.6,8.8,3.5,11,5.9c2.3,2.5,3.5,5.9,3.4,9.3c0,4.7-1.5,8.3-4.5,11C378,194.3,373.8,195.7,368.5,195.6z"/>
<path class="st0" d="M394,195.7L394,195.7c0.2-0.1,0.4-0.1,0.5-0.1c0.1,0,0.2-0.1,0.2-0.2c0-0.1,0.1-0.3,0.1-0.4v-4.3h-0.5
	c-0.2,0-0.4,0-0.6,0.1c-0.2,0.1-0.3,0.2-0.3,0.4c-0.1,0.3-0.2,0.6-0.3,0.9h-0.1c0-0.3,0.1-0.5,0.1-0.8c0-0.3,0-0.5,0-0.8h4
	c0,0.3,0,0.5,0,0.8c0,0.3,0,0.5,0.1,0.8h-0.1c-0.1-0.3-0.1-0.5-0.2-0.8c0-0.2-0.1-0.3-0.2-0.5c-0.1-0.1-0.2-0.2-0.3-0.2
	c-0.1,0-0.3,0-0.4,0h-0.5v4.3c0,0.1,0,0.3,0.1,0.4c0,0.1,0.1,0.2,0.2,0.2c0.2,0,0.4,0.1,0.5,0.1v0.1h-0.5h-1.3L394,195.7z"/>
<path class="st0" d="M400.3,195.8l-2-4.9l0,0v4.1c0,0.1,0,0.3,0.1,0.4c0.1,0.1,0.1,0.2,0.3,0.2c0.2,0.1,0.4,0.1,0.5,0.1v0.1h-0.4
	h-0.9h-0.3v-0.1c0.1,0,0.3,0,0.4-0.1c0.1,0,0.2-0.1,0.2-0.2c0-0.1,0.1-0.3,0.1-0.4v-3.7c0-0.1,0-0.3-0.1-0.4c0-0.1-0.1-0.1-0.2-0.2
	c-0.1,0-0.3-0.1-0.5-0.1v-0.1h1.4l1.8,4.4h-0.1l1.6-4.5h0.3h1.1v0.1c-0.1,0-0.3,0-0.4,0.1c-0.1,0-0.2,0.1-0.2,0.2
	c0,0.1-0.1,0.3-0.1,0.4v3.8c0,0.1,0,0.3,0.1,0.4c0,0.1,0.1,0.1,0.2,0.2c0.1,0,0.3,0.1,0.4,0.1v0.1h-0.5h-1.2h-0.4v-0.1
	c0.1,0,0.3,0,0.4-0.1c0.1,0,0.2-0.1,0.2-0.2c0-0.1,0-0.3,0-0.4v-4.4l0,0l-1.8,5.2H400.3z"/>
</svg>
