<?xml version="1.0" encoding="utf-8"?>
<!-- Generator: Adobe Illustrator 25.0.0, SVG Export Plug-In . SVG Version: 6.00 Build 0)  -->
<svg version="1.1" id="Layer_1" xmlns="http://www.w3.org/2000/svg" xmlns:xlink="http://www.w3.org/1999/xlink" x="0px" y="0px"
	 viewBox="0 0 313.3 99.7" style="enable-background:new 0 0 313.3 99.7;" xml:space="preserve">
<style type="text/css">
	.st0{fill:#F4683D;}
</style>
<path class="st0" d="M124.8,14.5c1-0.8,2-1.5,3.1-2c1.1-0.5,2.3-0.9,3.5-1.1c2.4-0.4,5-0.4,7.4,0c4.9,0.8,9.6,2.5,13.9,4.9
	c17.4,9.8,31,25.3,38.5,43.9c1.8,4.7,2.9,9.6,3,14.7c0.1,2.6-0.3,5.1-1.1,7.5c-0.4,1.2-1,2.4-1.7,3.5c-0.7,1.1-1.6,2.1-2.5,3
	c-1,0.8-2.1,1.6-3.3,2.1c-1.2,0.5-2.4,0.9-3.7,1.2c-2.5,0.4-5.1,0.5-7.7,0.1c-5-0.9-9.8-2.5-14.2-5c-8.8-4.9-16.5-11.3-23-19
	c-3.2-3.8-6.1-7.9-8.7-12.1c-2.5-4.3-4.6-8.8-6.3-13.5c-1.7-4.7-2.6-9.6-2.7-14.6c0-2.5,0.4-5,1.2-7.4c0.4-1.2,1-2.3,1.6-3.4
	C123.1,16.2,123.9,15.3,124.8,14.5z M124.9,14.6c-0.9,0.8-1.7,1.8-2.4,2.8c-0.6,1-1.2,2.2-1.5,3.3c-0.7,2.3-1.1,4.8-1,7.2
	c0.3,4.9,1.4,9.7,3.2,14.2c1.8,4.5,4.1,8.9,6.7,13c5.3,8.2,11.8,15.6,19.2,21.9c3.7,3.2,7.7,5.9,12,8.3c4.2,2.4,8.8,4.1,13.5,5
	c2.3,0.4,4.7,0.4,7.1,0c1.2-0.2,2.3-0.5,3.3-1c2.1-0.9,3.9-2.5,5.2-4.5c0.6-1,1.1-2,1.5-3.2c0.7-2.3,1.1-4.6,1.1-7
	c-0.1-4.9-1.1-9.7-2.8-14.2c-7.3-18.4-20.5-33.9-37.5-44c-4.3-2.5-8.9-4.2-13.8-5.1c-2.4-0.4-4.9-0.4-7.3,0
	c-1.2,0.2-2.4,0.6-3.5,1.1C126.9,13.2,125.9,13.8,124.9,14.6z"/>
<path class="st0" d="M131.8,6.4c1.2-0.5,2.4-0.8,3.6-0.9c1.2-0.1,2.5-0.1,3.7,0.1c2.4,0.4,4.8,1.2,7,2.3c4.4,2.3,8.3,5.4,11.7,9
	c13.5,14.8,21.5,33.7,22.8,53.7c0.3,5-0.3,10-1.7,14.9c-0.7,2.4-1.9,4.8-3.4,6.8c-0.8,1-1.7,2-2.7,2.8c-2,1.7-4.5,2.7-7.1,3
	c-1.3,0.2-2.6,0.2-3.9,0c-2.5-0.4-5-1.2-7.3-2.3c-4.5-2.4-8.5-5.5-11.9-9.2c-6.8-7.4-12.1-15.9-15.9-25.2c-1.9-4.6-3.4-9.4-4.5-14.2
	c-1.1-4.9-1.7-9.8-1.8-14.8c-0.2-5,0.5-10,2-14.7c0.8-2.4,1.9-4.6,3.4-6.6c0.8-1,1.6-1.9,2.6-2.7C129.6,7.5,130.7,6.8,131.8,6.4z
	 M131.9,6.5c-1.1,0.5-2.2,1.1-3.1,1.9c-0.9,0.8-1.8,1.7-2.5,2.7c-1.4,2-2.5,4.2-3.2,6.5c-1.3,4.7-1.8,9.6-1.4,14.5
	c0.3,4.9,1.1,9.7,2.3,14.5c2.5,9.5,6.3,18.5,11.4,26.8c2.5,4.2,5.5,8,8.8,11.6c3.2,3.6,7,6.7,11.3,9c2.1,1.1,4.4,1.9,6.7,2.3
	c1.2,0.2,2.3,0.2,3.5,0.1c2.3-0.2,4.5-1.1,6.3-2.6c0.9-0.7,1.7-1.6,2.4-2.5c1.4-1.9,2.5-4.1,3.2-6.3c1.4-4.7,2-9.5,1.8-14.4
	c-1.2-19.8-8.9-38.6-21.8-53.5c-3.3-3.7-7.2-6.8-11.5-9.1c-2.2-1.2-4.6-1.9-7-2.3c-1.2-0.2-2.4-0.2-3.7-0.1
	C134.2,5.8,133,6.1,131.9,6.5L131.9,6.5z"/>
<path class="st0" d="M188.5,14.6c-0.9-0.8-2-1.5-3.1-2c-1.1-0.5-2.3-0.9-3.5-1.1c-2.4-0.4-4.9-0.4-7.3,0c-4.8,0.9-9.5,2.6-13.8,5.1
	c-17,10.1-30.2,25.6-37.5,44c-1.7,4.5-2.7,9.3-2.8,14.2c0,2.4,0.3,4.7,1.1,7c0.4,1.1,0.9,2.2,1.5,3.2c1.3,2,3.1,3.5,5.2,4.5
	c1.1,0.5,2.2,0.8,3.3,1c2.3,0.4,4.7,0.4,7.1,0c4.8-0.9,9.3-2.6,13.5-5c4.3-2.4,8.3-5.1,12-8.3c7.5-6.3,13.9-13.7,19.2-21.9
	c2.7-4.1,4.9-8.5,6.7-13c1.9-4.5,2.9-9.4,3.2-14.2c0.1-2.4-0.3-4.9-1-7.2c-0.4-1.2-0.9-2.3-1.5-3.3
	C190.2,16.4,189.4,15.5,188.5,14.6z M188.6,14.5c0.9,0.8,1.8,1.8,2.5,2.8c0.7,1,1.2,2.2,1.6,3.4c0.8,2.4,1.2,4.9,1.2,7.4
	c-0.1,5-1,9.9-2.7,14.6c-1.7,4.7-3.8,9.2-6.3,13.5c-2.6,4.3-5.5,8.3-8.7,12.1c-6.5,7.7-14.2,14.1-23,19c-4.4,2.5-9.2,4.1-14.2,5
	c-2.5,0.4-5.1,0.4-7.7-0.1c-1.3-0.2-2.5-0.6-3.7-1.2c-1.2-0.6-2.3-1.3-3.3-2.1c-1-0.9-1.8-1.9-2.5-3c-0.7-1.1-1.2-2.3-1.7-3.5
	c-0.8-2.4-1.1-5-1.1-7.5c0.2-5,1.2-10,3-14.7c7.5-18.6,21.1-34,38.5-43.9c4.3-2.4,9.1-4.1,13.9-4.9c2.4-0.4,5-0.4,7.4,0
	c1.2,0.2,2.4,0.6,3.5,1.1C186.6,13,187.7,13.7,188.6,14.5z"/>
<path class="st0" d="M181.5,6.5c-1.1-0.4-2.3-0.8-3.5-0.9c-1.2-0.1-2.4-0.1-3.7,0.1c-2.4,0.4-4.8,1.1-7,2.3
	c-4.3,2.4-8.2,5.5-11.5,9.1c-13,14.9-20.6,33.7-21.8,53.5c-0.2,4.9,0.4,9.7,1.8,14.4c0.7,2.3,1.8,4.4,3.2,6.3
	c0.7,0.9,1.5,1.8,2.4,2.5c0.9,0.7,1.9,1.3,3,1.8c1.1,0.4,2.2,0.7,3.4,0.8c1.2,0.1,2.3,0.1,3.5-0.1c2.3-0.4,4.6-1.1,6.7-2.3
	c4.2-2.3,8.1-5.4,11.3-9c3.3-3.6,6.2-7.5,8.8-11.6c5.1-8.3,8.9-17.4,11.4-26.8c1.2-4.7,2-9.6,2.3-14.5c0.4-4.9-0.1-9.8-1.4-14.5
	c-0.7-2.3-1.8-4.6-3.2-6.5c-0.7-1-1.6-1.9-2.5-2.7C183.7,7.7,182.6,7,181.5,6.5z M181.6,6.4c1.1,0.5,2.2,1.1,3.2,1.9
	c1,0.8,1.8,1.7,2.6,2.7c1.5,2,2.6,4.2,3.4,6.6c1.5,4.8,2.2,9.7,2,14.7c-0.1,5-0.7,9.9-1.8,14.8c-1.1,4.9-2.6,9.6-4.5,14.2
	c-3.7,9.3-9.1,17.9-15.8,25.2c-3.4,3.7-7.5,6.8-11.9,9.2c-2.3,1.2-4.7,2-7.3,2.3c-1.3,0.2-2.6,0.2-3.9,0c-1.3-0.2-2.6-0.5-3.8-1
	c-1.2-0.5-2.3-1.2-3.3-2c-1-0.8-1.9-1.8-2.7-2.8c-1.5-2.1-2.6-4.4-3.4-6.8c-1.4-4.8-2-9.9-1.7-14.9c1.3-20,9.4-38.9,22.8-53.7
	c3.4-3.6,7.3-6.7,11.7-9c2.2-1.2,4.6-1.9,7-2.3c1.2-0.2,2.5-0.2,3.7-0.1C179.2,5.6,180.4,5.9,181.6,6.4z"/>
<path class="st0" d="M222,32c0.5-1.1,1.2-2.2,2-3.2c0.8-1,1.7-1.8,2.7-2.5c2-1.4,4.3-2.5,6.7-3.2c4.8-1.4,9.7-1.9,14.7-1.6
	c20,1.3,38.9,9.3,53.8,22.8c3.7,3.4,6.7,7.4,9.1,11.9c1.2,2.3,2,4.7,2.3,7.2c0.2,1.3,0.2,2.6,0,3.9c-0.3,2.6-1.3,5.1-3,7.1
	c-0.8,1-1.8,1.9-2.8,2.7c-2.1,1.5-4.4,2.6-6.9,3.4c-4.9,1.4-9.9,2-15,1.7c-10-0.6-19.8-3-28.9-7.1c-4.6-2-8.9-4.4-13.1-7.1
	c-4.2-2.7-8-5.9-11.6-9.4c-3.6-3.5-6.5-7.5-8.8-12c-1.1-2.2-1.8-4.6-2.2-7.1c-0.1-1.2-0.1-2.5,0-3.7C221.2,34.4,221.5,33.2,222,32z
	 M222.2,32.1c-0.5,1.1-0.8,2.3-0.9,3.5c-0.1,1.2-0.1,2.4,0.1,3.7c0.4,2.4,1.1,4.8,2.2,6.9c2.4,4.3,5.4,8.2,9.1,11.4
	c3.6,3.3,7.5,6.2,11.7,8.8c8.3,5.1,17.4,8.9,26.8,11.4c4.7,1.2,9.5,2,14.4,2.3c4.8,0.3,9.7-0.1,14.3-1.4c2.3-0.6,4.4-1.7,6.4-3
	c0.9-0.7,1.8-1.5,2.6-2.3c1.5-1.8,2.5-4,2.8-6.3c0.1-1.2,0.1-2.3,0-3.5c-0.3-2.4-1-4.7-2.1-6.8c-2.2-4.3-5.2-8.2-8.7-11.6
	C286.3,31.9,267.7,23.7,248,22c-4.9-0.4-9.9,0.1-14.6,1.4c-2.4,0.7-4.6,1.8-6.6,3.2c-1,0.7-1.9,1.6-2.7,2.5
	C223.4,30,222.8,31,222.2,32.1L222.2,32.1z"/>
<path class="st0" d="M224.8,21.7c0.8-0.9,1.8-1.7,2.8-2.4c1.1-0.6,2.2-1.2,3.4-1.5c2.4-0.7,4.8-1.1,7.3-1c5,0.2,9.8,1.2,14.5,3
	c18.6,7.5,34.1,21,43.9,38.4c2.5,4.4,4.1,9.2,5,14.1c0.4,2.5,0.4,5.1-0.1,7.6c-0.2,1.3-0.6,2.5-1.2,3.7c-0.6,1.2-1.3,2.3-2.1,3.3
	c-0.9,1-1.9,1.8-3,2.5c-1.1,0.7-2.3,1.2-3.5,1.7c-2.5,0.8-5,1.1-7.6,1.1c-5-0.2-10-1.3-14.7-3.1c-9.3-3.7-17.9-9-25.3-15.8
	c-3.7-3.3-7.1-7-10.2-10.9c-3.1-3.9-5.8-8.1-8.1-12.5c-2.3-4.4-3.9-9.2-4.6-14.1c-0.4-2.5-0.3-5,0.2-7.4c0.3-1.2,0.7-2.4,1.2-3.5
	C223.3,23.6,224,22.6,224.8,21.7z M225,21.8c-0.8,0.9-1.5,2-2,3.1c-0.5,1.1-0.9,2.3-1.1,3.5c-0.4,2.4-0.4,4.9,0,7.3
	c0.9,4.8,2.6,9.5,5,13.7c2.4,4.3,5.2,8.3,8.4,12c3.2,3.7,6.6,7.2,10.3,10.4c3.7,3.2,7.6,6.2,11.7,8.8c4.1,2.6,8.5,4.9,13,6.7
	c4.5,1.8,9.2,2.9,14,3.2c2.4,0.1,4.7-0.2,7-0.9c1.1-0.4,2.2-0.8,3.2-1.4c2-1.2,3.6-3,4.6-5.1c0.5-1.1,0.9-2.2,1.1-3.3
	c0.4-2.3,0.5-4.7,0.1-7.1c-0.8-4.8-2.4-9.4-4.7-13.7c-9.6-17.3-24.7-30.9-42.9-38.7c-4.6-1.9-9.4-3-14.3-3.2c-2.5-0.1-4.9,0.3-7.3,1
	c-1.2,0.4-2.3,0.9-3.3,1.5C226.7,20.1,225.8,20.9,225,21.8L225,21.8z"/>
<path class="st0" d="M279.5,4.5c-1.2-0.3-2.4-0.4-3.6-0.4c-1.2,0-2.4,0.2-3.6,0.5c-2.4,0.7-4.6,1.8-6.6,3.2
	c-4,2.9-7.4,6.5-10.2,10.6c-10.9,16.5-16,36.2-14.6,55.9c0.4,4.8,1.6,9.6,3.6,14c1,2.2,2.3,4.2,4,5.9c0.8,0.8,1.7,1.6,2.7,2.2
	c1,0.6,2.1,1,3.2,1.4c1.1,0.3,2.3,0.4,3.4,0.4c1.2,0,2.3-0.2,3.4-0.5c2.3-0.7,4.4-1.7,6.3-3.1c3.9-2.9,7.3-6.4,10-10.4
	c2.8-4,5.2-8.2,7.2-12.7c4-8.9,6.6-18.4,7.8-28.1c0.6-4.9,0.8-9.8,0.4-14.6c-0.3-4.9-1.4-9.7-3.3-14.2c-1-2.2-2.3-4.3-4-6.1
	c-0.8-0.9-1.8-1.7-2.8-2.3C281.8,5.3,280.6,4.8,279.5,4.5z M279.5,4.3c1.2,0.3,2.4,0.8,3.4,1.5c1.1,0.6,2,1.4,2.9,2.3
	c1.7,1.8,3.2,3.9,4.2,6.1c2.1,4.5,3.4,9.4,3.9,14.3c0.6,5,0.6,9.9,0.2,14.9c-0.5,5-1.3,9.9-2.6,14.7c-2.4,9.7-6.6,18.9-12.3,27.1
	c-2.9,4.1-6.5,7.7-10.6,10.7c-2.1,1.5-4.4,2.6-6.9,3.3c-1.3,0.3-2.5,0.5-3.8,0.6c-1.3,0-2.6-0.2-3.9-0.5c-1.3-0.4-2.5-0.9-3.6-1.6
	c-1.1-0.7-2.1-1.5-3-2.4c-1.8-1.9-3.2-4-4.2-6.3c-2-4.6-3.2-9.5-3.6-14.5c-1.3-19.9,4.1-39.8,15.5-56.2c2.9-4.1,6.4-7.6,10.4-10.5
	c2-1.4,4.3-2.5,6.7-3.2c1.2-0.3,2.4-0.5,3.7-0.5C277.1,3.9,278.3,4,279.5,4.3L279.5,4.3z"/>
<path class="st0" d="M269.6,0.2c-1.2,0.1-2.4,0.3-3.6,0.7c-1.2,0.4-2.2,1-3.3,1.7c-2,1.4-3.8,3.1-5.3,5.1c-2.9,4-5,8.5-6.4,13.2
	c-5.2,19.1-3.9,39.4,3.6,57.6c1.9,4.5,4.6,8.6,7.8,12.2c1.6,1.7,3.5,3.2,5.7,4.3c1,0.5,2.1,0.9,3.3,1.2c2.3,0.5,4.7,0.4,6.8-0.4
	c1.1-0.4,2.1-0.9,3.1-1.6c1.9-1.4,3.6-3.1,5-5c2.8-3.9,4.9-8.3,6.3-13c1.4-4.7,2.4-9.5,2.8-14.3c0.5-4.9,0.6-9.7,0.4-14.6
	c-0.2-4.9-0.8-9.7-1.8-14.5c-0.9-4.8-2.3-9.5-4.2-14c-1.8-4.6-4.4-8.8-7.6-12.5c-1.6-1.8-3.6-3.3-5.7-4.5c-1.1-0.6-2.2-1-3.4-1.3
	C272.1,0.3,270.8,0.2,269.6,0.2z M269.6,0c1.2-0.1,2.5,0,3.7,0.3c1.2,0.3,2.4,0.7,3.5,1.3c2.2,1.1,4.2,2.7,5.9,4.5
	c3.4,3.6,6.2,7.8,8.2,12.4c2.1,4.5,3.7,9.3,4.8,14.1c1.1,4.9,1.8,9.8,2.2,14.8c0.7,10-0.4,20-3.3,29.6c-1.5,4.8-3.7,9.4-6.7,13.5
	c-1.5,2.1-3.4,3.8-5.5,5.3c-1.1,0.7-2.3,1.3-3.5,1.7c-1.2,0.4-2.5,0.7-3.8,0.8c-1.3,0-2.6-0.1-3.9-0.4c-1.3-0.3-2.5-0.8-3.6-1.4
	c-2.2-1.2-4.3-2.8-6-4.7c-3.4-3.7-6.1-8-8-12.7C246,60.5,245,40,250.7,20.8c1.5-4.7,3.7-9.2,6.6-13.2c1.5-2,3.3-3.7,5.3-5.1
	c1-0.7,2.1-1.3,3.3-1.7C267.2,0.4,268.4,0.1,269.6,0L269.6,0z"/>
<path class="st0" d="M91.2,32.1C90.7,31,90,30,89.3,29c-0.8-0.9-1.7-1.8-2.7-2.5c-2-1.4-4.2-2.5-6.6-3.2c-4.8-1.3-9.7-1.8-14.6-1.4
	c-19.7,1.7-38.3,9.9-52.9,23.3C9,48.6,6,52.5,3.8,56.8c-1.1,2.1-1.8,4.4-2.1,6.8c-0.1,1.2-0.1,2.3,0,3.5c0.3,2.3,1.2,4.5,2.8,6.3
	C5.2,74.2,6.1,75,7,75.7c1.9,1.3,4.1,2.4,6.4,3c4.7,1.3,9.5,1.8,14.3,1.4c4.9-0.3,9.7-1.1,14.4-2.3c9.5-2.5,18.5-6.3,26.9-11.4
	c4.2-2.5,8.1-5.5,11.7-8.8c3.6-3.3,6.7-7.1,9.1-11.4c1.1-2.2,1.9-4.5,2.3-6.9c0.2-1.2,0.2-2.4,0-3.7C91.9,34.5,91.6,33.3,91.2,32.1z
	 M91.4,32.1c0.5,1.1,0.8,2.3,1,3.6c0.1,1.2,0.1,2.5,0,3.7c-0.3,2.5-1,4.9-2.1,7.1c-2.2,4.5-5.2,8.5-8.8,12
	c-3.5,3.5-7.4,6.7-11.6,9.4c-4.2,2.7-8.6,5.1-13.1,7.1c-9.1,4.1-18.9,6.5-28.9,7.1c-5.1,0.3-10.1-0.3-15-1.7
	C10.4,79.7,8,78.6,6,77.1c-1.1-0.8-2-1.7-2.8-2.7c-1.7-2-2.7-4.5-3-7.1C0,66,0,64.7,0.1,63.4c0.4-2.5,1.1-5,2.3-7.2
	c2.4-4.4,5.4-8.4,9.1-11.9c14.8-13.5,33.8-21.5,53.8-22.8c5-0.3,10,0.3,14.7,1.6c2.4,0.7,4.6,1.8,6.6,3.2c1,0.7,1.9,1.6,2.7,2.5
	C90.2,29.8,90.9,30.9,91.4,32.1L91.4,32.1z"/>
<path class="st0" d="M88.4,21.8c-0.8-0.9-1.8-1.7-2.8-2.4c-1-0.6-2.2-1.2-3.3-1.5c-2.3-0.7-4.8-1.1-7.3-1c-4.9,0.3-9.8,1.3-14.3,3.2
	C42.5,28,27.4,41.5,17.8,58.8c-2.3,4.3-3.9,8.9-4.7,13.7c-0.3,2.4-0.3,4.8,0.1,7.1c0.2,1.1,0.6,2.3,1.1,3.3c1,2.1,2.6,3.9,4.6,5.1
	c1,0.6,2.1,1.1,3.2,1.4c2.3,0.7,4.6,1,7,0.9c4.8-0.3,9.5-1.3,14-3.2c4.5-1.8,8.9-4,13-6.7c4.1-2.6,8-5.6,11.7-8.8
	c3.7-3.2,7.1-6.7,10.3-10.4c3.2-3.7,6-7.7,8.4-12c2.4-4.2,4.1-8.9,5-13.7c0.4-2.4,0.4-4.9,0-7.3c-0.2-1.2-0.6-2.4-1.1-3.5
	C89.8,23.7,89.2,22.7,88.4,21.8z M88.6,21.7c0.8,0.9,1.5,2,2.1,3.1c0.5,1.1,0.9,2.3,1.2,3.5c0.5,2.4,0.5,5,0.2,7.4
	c-0.7,4.9-2.3,9.7-4.6,14.1c-2.3,4.4-5,8.6-8.1,12.5c-3.1,3.9-6.5,7.5-10.2,10.9C61.7,80,53.2,85.4,43.9,89.1
	c-4.7,1.9-9.7,2.9-14.7,3.1c-2.6,0.1-5.1-0.3-7.6-1.1c-1.2-0.4-2.4-1-3.5-1.7c-1.1-0.7-2.1-1.6-3-2.5c-0.9-1-1.6-2.1-2.1-3.3
	c-0.5-1.2-0.9-2.4-1.2-3.7c-0.4-2.5-0.5-5.1-0.1-7.6c0.8-5,2.5-9.7,5-14.1c9.9-17.4,25.3-31,43.9-38.5C65.1,18,70,17,75,16.8
	c2.5-0.1,5,0.3,7.3,1c1.2,0.4,2.3,0.9,3.4,1.5C86.8,20,87.7,20.8,88.6,21.7z"/>
<path class="st0" d="M33.9,4.3c1.2-0.3,2.4-0.4,3.7-0.4c1.2,0,2.5,0.2,3.7,0.5c2.4,0.7,4.6,1.8,6.7,3.2c4,2.9,7.6,6.5,10.4,10.5
	c11.4,16.4,16.9,36.3,15.6,56.3c-0.4,5-1.6,9.9-3.6,14.5c-1,2.3-2.5,4.5-4.2,6.3c-0.9,0.9-1.9,1.7-3,2.4c-1.1,0.7-2.3,1.2-3.6,1.6
	c-1.3,0.3-2.6,0.5-3.9,0.5c-1.3,0-2.6-0.2-3.9-0.6c-2.5-0.7-4.8-1.8-6.9-3.3c-4.1-2.9-7.7-6.6-10.6-10.7
	c-5.7-8.2-9.9-17.4-12.4-27.1c-1.2-4.8-2.1-9.7-2.6-14.7c-0.5-5-0.4-10,0.2-14.9c0.5-5,1.8-9.8,3.9-14.3c1.1-2.3,2.5-4.3,4.2-6.1
	c0.9-0.9,1.9-1.7,2.9-2.3C31.5,5.1,32.7,4.6,33.9,4.3z M33.9,4.5c-1.2,0.3-2.3,0.8-3.3,1.5c-1,0.7-2,1.4-2.8,2.3
	c-1.7,1.8-3,3.8-4,6.1c-1.9,4.5-3,9.3-3.3,14.2c-0.3,4.9-0.2,9.8,0.4,14.6c1.2,9.7,3.8,19.2,7.8,28.1c2,4.5,4.4,8.7,7.2,12.7
	c2.7,4,6.1,7.5,10,10.4c1.9,1.4,4.1,2.4,6.4,3.1c1.1,0.3,2.3,0.5,3.4,0.5c1.2,0,2.3-0.1,3.4-0.4c1.1-0.3,2.2-0.8,3.2-1.4
	c1-0.6,1.9-1.3,2.7-2.2c1.7-1.7,3-3.7,4-5.9c2-4.4,3.2-9.2,3.6-14C74,54.5,68.9,34.9,58,18.4c-2.8-4.1-6.2-7.6-10.2-10.6
	c-2-1.4-4.2-2.5-6.6-3.2c-1.2-0.3-2.4-0.5-3.6-0.5C36.4,4,35.1,4.2,33.9,4.5L33.9,4.5z"/>
<path class="st0" d="M43.8,0c1.2,0.1,2.5,0.3,3.6,0.7c1.2,0.4,2.3,1,3.3,1.7c2,1.4,3.8,3.1,5.3,5.1c2.9,4,5.2,8.5,6.6,13.2
	c5.7,19.2,4.7,39.8-2.8,58.4c-1.9,4.6-4.6,8.9-8,12.7c-1.7,1.9-3.8,3.5-6,4.7c-1.2,0.6-2.4,1.1-3.6,1.4c-1.3,0.3-2.6,0.4-3.9,0.4
	c-1.3-0.1-2.6-0.3-3.9-0.8c-1.2-0.4-2.4-1-3.5-1.7c-2.1-1.4-4-3.2-5.5-5.3c-3-4.1-5.3-8.6-6.7-13.5c-2.9-9.6-4-19.6-3.3-29.6
	c0.3-5,1.1-9.9,2.2-14.8c1.1-4.9,2.7-9.6,4.8-14.1c2-4.6,4.8-8.7,8.2-12.4c1.7-1.8,3.7-3.3,5.9-4.5c1.1-0.6,2.3-1,3.5-1.3
	C41.3,0.1,42.5,0,43.8,0z M43.8,0.2c-1.2,0-2.4,0.1-3.6,0.4c-1.2,0.3-2.3,0.7-3.4,1.3c-2.1,1.2-4.1,2.7-5.7,4.5
	c-3.2,3.7-5.8,7.9-7.6,12.5c-1.8,4.5-3.2,9.2-4.2,14c-1,4.8-1.6,9.6-1.8,14.5c-0.3,4.9-0.1,9.8,0.4,14.6c0.5,4.8,1.4,9.6,2.8,14.3
	c1.3,4.7,3.5,9.1,6.3,13c1.4,1.9,3.1,3.6,5,5c1,0.6,2,1.2,3.1,1.6c2.2,0.8,4.6,1,6.8,0.4c1.1-0.3,2.2-0.7,3.3-1.2
	c2.1-1.1,4-2.6,5.6-4.3c3.3-3.6,5.9-7.7,7.8-12.2c7.5-18.3,8.8-38.6,3.6-57.7c-1.4-4.7-3.5-9.2-6.4-13.2c-1.5-2-3.2-3.7-5.3-5.1
	c-1-0.7-2.1-1.2-3.3-1.7C46.2,0.5,45,0.3,43.8,0.2L43.8,0.2z"/>
</svg>
